<?xml version="1.0" standalone="no"?>
<!DOCTYPE svg PUBLIC "-//W3C//DTD SVG 20010904//EN"
 "http://www.w3.org/TR/2001/REC-SVG-20010904/DTD/svg10.dtd">
<svg version="1.0" xmlns="http://www.w3.org/2000/svg"
 width="707.000000pt" height="707.000000pt" viewBox="0 0 707.000000 707.000000"
 preserveAspectRatio="xMidYMid meet">

<g transform="translate(0.000000,707.000000) scale(0.100000,-0.100000)"
fill="#000000" stroke="none">
<path d="M13 7063 c-10 -4 -13 -719 -13 -3528 0 -3176 2 -3523 16 -3529 8 -3
1597 -6 3530 -6 l3514 0 0 3535 0 3535 -3517 -1 c-1935 0 -3524 -3 -3530 -6z
m3913 -3054 c76 -47 113 -168 77 -250 -39 -86 -103 -129 -193 -129 -54 0 -99
16 -140 49 l-24 19 17 49 c22 61 22 115 0 175 -16 46 -16 48 3 67 67 62 178
71 260 20z m-388 12 c73 -38 112 -102 112 -186 0 -130 -94 -213 -231 -203 -47
3 -66 10 -96 35 -128 102 -111 281 32 356 43 23 137 22 183 -2z m-2555 -92
c83 -13 210 -67 226 -97 14 -27 13 -83 -2 -103 -16 -21 -51 -39 -76 -39 -10 0
-52 16 -92 35 -59 28 -85 35 -134 35 -90 0 -134 -40 -113 -102 11 -32 46 -50
178 -87 122 -36 176 -61 219 -103 45 -44 61 -89 61 -168 0 -164 -103 -259
-293 -268 -134 -7 -283 37 -367 109 -35 30 -36 102 -1 130 37 30 67 33 108 11
145 -77 143 -76 224 -77 88 0 132 21 137 68 7 60 -24 82 -179 125 -226 63
-300 139 -286 293 11 127 99 216 237 239 66 11 74 11 153 -1z m908 1 c214 -41
368 -226 369 -445 0 -121 -41 -225 -123 -313 -95 -100 -199 -142 -351 -142
-240 0 -419 149 -457 379 -29 175 47 348 198 453 97 66 236 92 364 68z m1027
-5 c109 -26 190 -77 206 -132 4 -12 0 -37 -8 -56 -28 -68 -84 -74 -183 -20
-60 33 -75 37 -138 37 -147 -1 -243 -95 -253 -250 -11 -175 92 -294 255 -294
68 0 92 9 203 71 22 12 45 17 60 14 38 -9 70 -50 70 -92 0 -46 -50 -95 -140
-137 -56 -26 -79 -30 -171 -34 -164 -6 -259 28 -359 129 -96 97 -144 252 -121
390 46 277 298 440 579 374z m1616 0 c94 -17 196 -69 214 -108 26 -53 -19
-127 -76 -127 -13 0 -54 14 -91 32 -89 43 -192 51 -233 18 -35 -27 -38 -80 -8
-108 11 -10 61 -31 112 -46 168 -50 188 -57 236 -89 69 -47 97 -103 96 -197
-1 -117 -47 -189 -154 -239 -44 -20 -75 -26 -153 -29 -84 -4 -108 -1 -181 22
-95 30 -175 78 -194 119 -19 38 0 92 38 112 36 19 58 19 90 0 127 -74 223 -99
294 -75 49 16 66 35 66 75 0 44 -32 69 -124 96 -201 59 -228 70 -277 119 -39
39 -49 57 -59 105 -33 160 52 284 220 321 74 17 95 16 184 -1z m-943 -398 c18
-12 44 -38 56 -56 22 -33 23 -42 23 -243 l0 -209 -227 3 -228 3 -3 170 c-4
201 5 261 50 306 44 44 59 48 184 48 100 1 115 -1 145 -22z m377 -5 c63 -45
67 -64 67 -292 l0 -205 -165 0 -165 0 -5 215 c-5 206 -6 216 -29 248 -13 18
-22 34 -20 36 27 22 57 26 164 24 107 -3 123 -5 153 -26z"/>
<path d="M1702 3742 c-105 -38 -163 -120 -170 -243 -4 -66 -1 -84 20 -130 47
-104 128 -158 232 -159 78 0 128 16 176 58 62 52 93 122 93 207 2 198 -173
330 -351 267z"/>
</g>
</svg>
